<?xml version="1.0" encoding="UTF-8" standalone="no"?>
<svg
   xmlns:dc="http://purl.org/dc/elements/1.1/"
   xmlns:cc="http://creativecommons.org/ns#"
   xmlns:rdf="http://www.w3.org/1999/02/22-rdf-syntax-ns#"
   xmlns:svg="http://www.w3.org/2000/svg"
   xmlns="http://www.w3.org/2000/svg"
   xmlns:sodipodi="http://sodipodi.sourceforge.net/DTD/sodipodi-0.dtd"
   xmlns:inkscape="http://www.inkscape.org/namespaces/inkscape"
   sodipodi:docname="info_circle.svg"
   id="svg3889"
   version="1.1"
   viewBox="0 0 20 20"
   height="20"
   width="20"
   inkscape:version="0.92.5 (2060ec1f9f, 2020-04-08)">
  <metadata
     id="metadata3895">
    <rdf:RDF>
      <cc:Work
         rdf:about="">
        <dc:format>image/svg+xml</dc:format>
        <dc:type
           rdf:resource="http://purl.org/dc/dcmitype/StillImage" />
        <dc:title />
      </cc:Work>
    </rdf:RDF>
  </metadata>
  <defs
     id="defs3893" />
  <sodipodi:namedview
     pagecolor="#ffffff"
     bordercolor="#666666"
     borderopacity="1"
     objecttolerance="10"
     gridtolerance="10"
     guidetolerance="10"
     inkscape:pageopacity="0"
     inkscape:pageshadow="2"
     inkscape:window-width="1467"
     inkscape:window-height="759"
     id="namedview3891"
     showgrid="false"
     fit-margin-top="0"
     fit-margin-left="0"
     fit-margin-right="0"
     fit-margin-bottom="0"
     inkscape:zoom="20.85965"
     inkscape:cx="12.48772"
     inkscape:cy="7.3873016"
     inkscape:window-x="177"
     inkscape:window-y="63"
     inkscape:window-maximized="0"
     inkscape:current-layer="svg3889" />
  <path
     style="fill:#d2d4d6;stroke-width:0.01953125;opacity:1"
     d="M 10 0 A 10 10 0 0 0 0 10 A 10 10 0 0 0 10 20 A 10 10 0 0 0 20 10 A 10 10 0 0 0 10 0 z M 10.125 3.7070312 L 11.449219 3.7070312 C 11.51456 3.7070312 11.568359 3.7593716 11.568359 3.8222656 L 11.568359 5.0019531 C 11.568359 5.0675237 11.514559 5.1210938 11.449219 5.1210938 L 10.125 5.1210938 C 10.059658 5.1210937 10.009766 5.0675231 10.009766 5.0019531 L 10.009766 3.8222656 C 10.009766 3.7593714 10.06228 3.7070312 10.125 3.7070312 z M 6.4394531 5.4042969 L 7.765625 5.4042969 C 7.8283499 5.4042969 7.8808594 5.4566372 7.8808594 5.5195312 L 7.8808594 6.6992188 C 7.8808594 6.7647894 7.828352 6.8164062 7.765625 6.8164062 L 6.4394531 6.8164062 C 6.3767264 6.8164062 6.3248756 6.7647888 6.3222656 6.6992188 L 6.3222656 5.5195312 C 6.3248803 5.4566371 6.3741131 5.4042969 6.4394531 5.4042969 z M 8.2929688 5.4042969 L 9.6171875 5.4042969 C 9.6799155 5.4042969 9.7324219 5.4566372 9.7324219 5.5195312 L 9.7324219 6.6992188 C 9.7324219 6.7647894 9.6799175 6.8164062 9.6171875 6.8164062 L 8.2929688 6.8164062 C 8.2302408 6.8164062 8.1777344 6.7647888 8.1777344 6.6992188 L 8.1777344 5.5195312 C 8.1777344 5.4566371 8.2302387 5.4042969 8.2929688 5.4042969 z M 10.125 5.4042969 L 11.449219 5.4042969 C 11.51456 5.4042969 11.568359 5.4539612 11.568359 5.5195312 L 11.568359 6.6992188 C 11.56575 6.7647894 11.514559 6.8164062 11.449219 6.8164062 L 10.125 6.8164062 C 10.059658 6.8164062 10.009766 6.7647888 10.009766 6.6992188 L 10.009766 5.5195312 C 10.009766 5.4566371 10.06228 5.4042969 10.125 5.4042969 z M 14.945312 5.7792969 L 15.158203 5.9042969 C 15.197407 5.9278486 16.076267 6.4460574 16.230469 7.5097656 C 16.439557 7.4709586 16.651579 7.4550781 16.863281 7.4550781 C 17.663043 7.4550781 18.042164 7.7399835 18.083984 7.7734375 L 18.232422 7.8847656 L 18.171875 8.0664062 C 18.075172 8.3147699 17.923875 8.5358227 17.730469 8.71875 C 17.440358 9.006188 16.91195 9.3496094 16.054688 9.3496094 L 15.916016 9.3496094 C 15.568406 10.225172 15.101781 11.21361 14.320312 12.099609 C 13.852477 12.630192 13.301037 13.078177 12.689453 13.433594 C 11.94719 13.854447 11.139748 14.148444 10.300781 14.302734 C 9.6970382 14.415145 9.082947 14.46875 8.46875 14.46875 C 7.1070619 14.46875 5.9069587 14.209979 5.1699219 13.757812 C 4.5112934 13.355292 4.0038311 12.700536 3.6640625 11.806641 C 3.3687252 10.99384 3.2219709 10.132569 3.2324219 9.2675781 C 3.2324219 9.0087768 3.4424251 8.8007812 3.7011719 8.8007812 L 13.582031 8.8007812 C 13.702257 8.7982388 14.300743 8.7455415 14.671875 8.5390625 C 14.363469 8.0530407 14.278126 7.4834098 14.421875 6.8769531 C 14.49767 6.558202 14.625009 6.2568797 14.802734 5.9824219 L 14.945312 5.7792969 z M 4.6152344 7.1035156 L 5.9414062 7.1035156 C 6.0041313 7.1061919 6.0546875 7.1597622 6.0546875 7.2226562 L 6.0546875 8.4003906 C 6.0546875 8.4632848 6.0041332 8.515625 5.9414062 8.515625 L 4.6152344 8.515625 C 4.5525095 8.515625 4.5 8.4659606 4.5 8.4003906 L 4.5 7.21875 C 4.5 7.1558558 4.5525074 7.1035156 4.6152344 7.1035156 z M 6.4433594 7.1035156 L 7.7675781 7.1035156 C 7.830303 7.1061919 7.8828125 7.1597622 7.8828125 7.2226562 L 7.8828125 8.4003906 C 7.8828125 8.4632848 7.8303051 8.515625 7.7675781 8.515625 L 6.4433594 8.515625 C 6.3780197 8.515625 6.3242188 8.4659606 6.3242188 8.4003906 L 6.3242188 7.2226562 C 6.3242188 7.1570857 6.3780194 7.1035156 6.4433594 7.1035156 z M 8.2929688 7.1035156 L 9.6171875 7.1035156 C 9.6799155 7.1061919 9.7324219 7.1597622 9.7324219 7.2226562 L 9.7324219 8.4003906 C 9.7324219 8.4632848 9.6799175 8.515625 9.6171875 8.515625 L 8.2929688 8.515625 C 8.2302408 8.5129487 8.1777344 8.4632846 8.1777344 8.4003906 L 8.1777344 7.21875 C 8.1777344 7.1558558 8.2302387 7.1035156 8.2929688 7.1035156 z M 10.125 7.1035156 L 11.449219 7.1035156 C 11.51456 7.1035156 11.568359 7.1570862 11.568359 7.2226562 L 11.568359 8.4003906 C 11.56575 8.4632848 11.511939 8.515625 11.449219 8.515625 L 10.125 8.515625 C 10.059658 8.515625 10.009766 8.4632846 10.009766 8.4003906 L 10.009766 7.21875 C 10.009766 7.1558557 10.06228 7.1035156 10.125 7.1035156 z M 11.970703 7.1035156 L 13.294922 7.1035156 C 13.357654 7.106192 13.410156 7.1551331 13.410156 7.2207031 L 13.410156 8.4003906 C 13.410156 8.4632849 13.357642 8.515625 13.294922 8.515625 L 11.970703 8.515625 C 11.907971 8.515625 11.855469 8.4632846 11.855469 8.4003906 L 11.855469 7.21875 C 11.855469 7.1558557 11.907983 7.1035156 11.970703 7.1035156 z "
     id="circle3885" />
  <path
     inkscape:connector-curvature="0"
     id="path4702"
     d="M 9.2613954,19.948453 C 5.0315003,19.646154 1.3941264,16.605515 0.34447297,12.494409 -1.0307001,7.1083634 2.2122083,1.6713031 7.6074846,0.31724369 8.7638141,0.02703816 10.32441,-0.05331146 11.41867,0.12101915 c 2.163738,0.34471314 3.994218,1.24506765 5.506405,2.70842395 4.07763,3.9459583 4.061216,10.4575599 -0.03623,14.3747479 -1.694433,1.619888 -3.849505,2.574819 -6.191944,2.743704 -0.7190836,0.05184 -0.7178899,0.05184 -1.4355016,5.56e-4 z m 0.9516706,-6.019504 c 1.881711,-0.323289 3.168157,-1.298428 4.039117,-3.061691 l 0.309214,-0.626003 0.354852,-0.05489 c 0.195169,-0.03019 0.45697,-0.105694 0.58178,-0.167788 0.440289,-0.2190481 0.88357,-0.8010766 0.740972,-0.9728968 -0.125511,-0.1512317 -0.563592,-0.2665788 -1.012448,-0.2665788 -0.303806,0 -0.436236,-0.0177 -0.448343,-0.059924 -0.113795,-0.3968859 -0.213243,-0.5650929 -0.510173,-0.86291 -0.177445,-0.1779752 -0.364576,-0.3235912 -0.415846,-0.3235912 -0.114219,0 -0.304598,0.3338617 -0.421671,0.7394678 -0.102255,0.3542705 -0.07588,0.8504903 0.05977,1.1246718 l 0.09541,0.192833 -0.148695,0.061935 c -0.115844,0.048252 -1.034579,0.067275 -4.1586208,0.086106 -3.7756611,0.022758 -4.0154983,0.029215 -4.1053047,0.1105152 -0.1344443,0.1217097 -0.1550558,0.284839 -0.1040742,0.8237 0.1334414,1.410444 0.7433884,2.509316 1.6276319,2.932319 0.8513129,0.407249 2.2723109,0.538471 3.5164308,0.324724 z M 7.1520599,9.0427693 V 8.5154354 H 6.5767865 6.0015132 l -0.013824,0.4759821 c -0.0076,0.2617901 -0.00262,0.505172 0.011067,0.540848 0.019394,0.05054 0.1495001,0.061881 0.5890976,0.051352 l 0.5642061,-0.013514 z m 1.3902438,0 V 8.5154354 H 7.9670304 7.3917571 l -0.013824,0.4759821 c -0.0076,0.2617901 -0.00262,0.505172 0.011067,0.540848 0.019394,0.05054 0.1495001,0.061881 0.5890976,0.051352 l 0.564206,-0.013514 z m 1.3851148,0.4754735 c 0.03781,-0.098531 0.03781,-0.8524161 0,-0.950947 -0.024277,-0.063265 -0.1235697,-0.07583 -0.599243,-0.07583 H 8.7580312 v 0.5193438 c 0,0.2856395 0.014382,0.5337261 0.03196,0.5513036 0.017577,0.017578 0.2741427,0.03196 0.5701443,0.03196 0.4465305,0 0.54314,-0.012914 0.567283,-0.07583 z M 11.274852,9.0427693 V 8.5154354 h -0.575273 -0.575274 l -0.01382,0.4759821 c -0.0076,0.2617901 -0.0026,0.505172 0.01107,0.540848 0.01939,0.05054 0.1495,0.061881 0.589098,0.051352 l 0.564206,-0.013514 z m 1.390244,0 V 8.5154354 h -0.575274 -0.575273 l -0.01382,0.4759821 c -0.0076,0.2617901 -0.0026,0.505172 0.01107,0.540848 0.01939,0.05054 0.1495,0.061881 0.589098,0.051352 l 0.564206,-0.013514 z M 8.5423037,7.7723741 V 7.2690099 L 7.9550455,7.2555495 7.3677874,7.242089 v 0.5302851 0.530285 l 0.5872581,-0.01346 0.5872582,-0.013461 z m 1.3902439,0 V 7.2690099 L 9.3452894,7.2555495 8.7580312,7.242089 v 0.5302851 0.530285 l 0.5872582,-0.01346 0.5872582,-0.013461 z m 1.3662744,-0.00148 v -0.528806 l -0.587258,0.01346 -0.587259,0.01346 -0.01389,0.4518283 c -0.0076,0.2485056 -0.0029,0.4804126 0.01048,0.515349 0.01837,0.047864 0.166538,0.063521 0.601153,0.063521 l 0.576778,9e-7 V 7.7708985 Z M 11.274852,6.5019788 V 5.974645 h -0.575273 -0.575274 l -0.01382,0.4759821 c -0.0076,0.2617901 -0.0026,0.5051719 0.01107,0.540848 0.01939,0.05054 0.1495,0.061881 0.589098,0.051352 l 0.564206,-0.013514 z"
     style="fill:#000000;fill-opacity:0;stroke-width:0.04793944;opacity:1" />
  <path
     inkscape:connector-curvature="0"
     id="path4704"
     d="M 9.2613954,19.948453 C 5.0315003,19.646154 1.3941264,16.605515 0.34447297,12.494409 -1.0307001,7.1083634 2.2122083,1.6713031 7.6074846,0.31724369 8.7638141,0.02703816 10.32441,-0.05331146 11.41867,0.12101915 c 2.163738,0.34471314 3.994218,1.24506765 5.506405,2.70842395 4.07763,3.9459583 4.061216,10.4575599 -0.03623,14.3747479 -1.694433,1.619888 -3.849505,2.574819 -6.191944,2.743704 -0.7190836,0.05184 -0.7178899,0.05184 -1.4355016,5.56e-4 z m 0.9516706,-6.019504 c 1.881711,-0.323289 3.168157,-1.298428 4.039117,-3.061691 l 0.309214,-0.626003 0.354852,-0.05489 c 0.195169,-0.03019 0.45697,-0.105694 0.58178,-0.167788 0.440289,-0.2190481 0.88357,-0.8010766 0.740972,-0.9728968 -0.125511,-0.1512317 -0.563592,-0.2665788 -1.012448,-0.2665788 -0.303806,0 -0.436236,-0.0177 -0.448343,-0.059924 -0.113795,-0.3968859 -0.213243,-0.5650929 -0.510173,-0.86291 -0.177445,-0.1779752 -0.364576,-0.3235912 -0.415846,-0.3235912 -0.114219,0 -0.304598,0.3338617 -0.421671,0.7394678 -0.102255,0.3542705 -0.07588,0.8504903 0.05977,1.1246718 l 0.09541,0.192833 -0.148695,0.061935 c -0.115844,0.048252 -1.034579,0.067275 -4.1586208,0.086106 -3.7756611,0.022758 -4.0154983,0.029215 -4.1053047,0.1105152 -0.1344443,0.1217097 -0.1550558,0.284839 -0.1040742,0.8237 0.1334414,1.410444 0.7433884,2.509316 1.6276319,2.932319 0.8513129,0.407249 2.2723109,0.538471 3.5164308,0.324724 z M 7.1520599,9.0427693 V 8.5154354 H 6.5767865 6.0015132 l -0.013824,0.4759821 c -0.0076,0.2617901 -0.00262,0.505172 0.011067,0.540848 0.019394,0.05054 0.1495001,0.061881 0.5890976,0.051352 l 0.5642061,-0.013514 z m 1.3902438,0 V 8.5154354 H 7.9670304 7.3917571 l -0.013824,0.4759821 c -0.0076,0.2617901 -0.00262,0.505172 0.011067,0.540848 0.019394,0.05054 0.1495001,0.061881 0.5890976,0.051352 l 0.564206,-0.013514 z m 1.3851148,0.4754735 c 0.03781,-0.098531 0.03781,-0.8524161 0,-0.950947 -0.024277,-0.063265 -0.1235697,-0.07583 -0.599243,-0.07583 H 8.7580312 v 0.5193438 c 0,0.2856395 0.014382,0.5337261 0.03196,0.5513036 0.017577,0.017578 0.2741427,0.03196 0.5701443,0.03196 0.4465305,0 0.54314,-0.012914 0.567283,-0.07583 z M 11.274852,9.0427693 V 8.5154354 h -0.575273 -0.575274 l -0.01382,0.4759821 c -0.0076,0.2617901 -0.0026,0.505172 0.01107,0.540848 0.01939,0.05054 0.1495,0.061881 0.589098,0.051352 l 0.564206,-0.013514 z m 1.390244,0 V 8.5154354 h -0.575274 -0.575273 l -0.01382,0.4759821 c -0.0076,0.2617901 -0.0026,0.505172 0.01107,0.540848 0.01939,0.05054 0.1495,0.061881 0.589098,0.051352 l 0.564206,-0.013514 z M 8.5423037,7.7723741 V 7.2690099 L 7.9550455,7.2555495 7.3677874,7.242089 v 0.5302851 0.530285 l 0.5872581,-0.01346 0.5872582,-0.013461 z m 1.3902439,0 V 7.2690099 L 9.3452894,7.2555495 8.7580312,7.242089 v 0.5302851 0.530285 l 0.5872582,-0.01346 0.5872582,-0.013461 z m 1.3662744,-0.00148 v -0.528806 l -0.587258,0.01346 -0.587259,0.01346 -0.01389,0.4518283 c -0.0076,0.2485056 -0.0029,0.4804126 0.01048,0.515349 0.01837,0.047864 0.166538,0.063521 0.601153,0.063521 l 0.576778,9e-7 V 7.7708985 Z M 11.274852,6.5019788 V 5.974645 h -0.575273 -0.575274 l -0.01382,0.4759821 c -0.0076,0.2617901 -0.0026,0.5051719 0.01107,0.540848 0.01939,0.05054 0.1495,0.061881 0.589098,0.051352 l 0.564206,-0.013514 z"
     style="fill:#000000;fill-opacity:0;stroke-width:0.04793944;opacity:1" />
  <path
     id="path4706"
     d="M 10.523438 0.037109375 C 10.095755 0.02038124 9.6441668 0.041591365 9.1933594 0.078125 C 9.0354779 0.090806959 8.8837965 0.10215456 8.7285156 0.12109375 C 8.6299801 0.13312937 8.5340575 0.14369826 8.4375 0.15820312 C 8.1482033 0.20153878 7.8660854 0.25148913 7.6074219 0.31640625 C 5.921398 0.73954982 4.4462513 1.5618055 3.2558594 2.65625 C 3.0177633 2.8751542 2.7908324 3.1040481 2.5761719 3.34375 C 2.5758635 3.3440943 2.5764802 3.3453588 2.5761719 3.3457031 C 2.3618868 3.585059 2.1584714 3.833723 1.96875 4.0917969 C 1.968451 4.0922035 1.969049 4.0933433 1.96875 4.09375 C 1.7790941 4.3518228 1.6013976 4.6178042 1.4375 4.8925781 C 0.61622296 6.2690222 0.1253949 7.8420715 0.041015625 9.4863281 C -0.0096325132 10.472581 0.085905044 11.484257 0.34375 12.494141 C 0.47495668 13.008029 0.64729268 13.505243 0.85546875 13.982422 C 1.0636734 14.459629 1.3085367 14.91756 1.5859375 15.351562 C 2.6953444 17.087378 4.3260015 18.450762 6.2304688 19.234375 C 6.7066346 19.430327 7.2006789 19.590806 7.7070312 19.710938 C 8.2133836 19.831069 8.7329819 19.911431 9.2617188 19.949219 C 9.9793305 20.000503 9.978182 19.999106 10.697266 19.947266 C 11.282875 19.905044 11.856144 19.814366 12.414062 19.675781 C 12.971981 19.537196 13.513468 19.352258 14.035156 19.121094 C 14.556845 18.889929 15.058238 18.612929 15.535156 18.292969 C 16.012024 17.973151 16.465064 17.61005 16.888672 17.205078 C 17.400467 16.715799 17.849946 16.185177 18.234375 15.625 C 18.234691 15.624539 18.234059 15.623508 18.234375 15.623047 C 19.003251 14.502295 19.516559 13.260247 19.775391 11.976562 C 19.775518 11.975931 19.775263 11.975241 19.775391 11.974609 C 19.904617 11.333078 19.970886 10.681345 19.972656 10.029297 C 19.972658 10.028647 19.972655 10.027994 19.972656 10.027344 C 19.973477 9.7016446 19.958723 9.3753401 19.927734 9.0507812 C 19.927673 9.0501404 19.927796 9.049469 19.927734 9.0488281 C 19.923223 9.0016765 19.911433 8.9553004 19.90625 8.9082031 C 19.839944 8.3062968 19.724833 7.7073991 19.548828 7.1230469 C 19.35898 6.4929058 19.104569 5.8774661 18.787109 5.2871094 C 18.786847 5.2866217 18.787372 5.2856439 18.787109 5.2851562 C 18.727263 5.1739117 18.654223 5.0683912 18.589844 4.9589844 C 18.38591 4.6124977 18.159573 4.2764058 17.910156 3.9511719 C 17.820073 3.8337059 17.738595 3.7119704 17.642578 3.5976562 C 17.419708 3.3322495 17.180633 3.0767005 16.925781 2.8300781 C 16.629999 2.5438474 16.318296 2.2842218 15.998047 2.0410156 C 15.909389 1.973686 15.822966 1.9019282 15.732422 1.8378906 C 15.731975 1.8375749 15.730915 1.8382063 15.730469 1.8378906 C 15.521882 1.6904169 15.308481 1.5499485 15.089844 1.4199219 C 15.089351 1.4196292 15.088383 1.4202144 15.087891 1.4199219 C 14.430511 1.0291194 13.727782 0.71799769 12.978516 0.484375 C 12.479005 0.32862654 11.958903 0.20727203 11.417969 0.12109375 C 11.144404 0.077511098 10.841691 0.049557379 10.523438 0.037109375 z M 10.125 5.9746094 L 10.699219 5.9746094 L 11.275391 5.9746094 L 11.275391 6.5019531 L 11.275391 7.0292969 L 10.710938 7.0429688 C 10.271339 7.0534978 10.140484 7.0427275 10.121094 6.9921875 C 10.107424 6.9565114 10.103728 6.712962 10.111328 6.4511719 L 10.125 5.9746094 z M 7.3671875 7.2421875 L 7.9550781 7.2558594 L 8.5429688 7.2695312 L 8.5429688 7.7714844 L 8.5429688 8.2753906 L 7.9550781 8.2890625 L 7.3671875 8.3027344 L 7.3671875 7.7714844 L 7.3671875 7.2421875 z M 8.7578125 7.2421875 L 9.3457031 7.2558594 L 9.9316406 7.2695312 L 9.9316406 7.7714844 L 9.9316406 8.2753906 L 9.3457031 8.2890625 L 8.7578125 8.3027344 L 8.7578125 7.7714844 L 8.7578125 7.2421875 z M 11.298828 7.2421875 L 11.298828 7.7714844 L 11.298828 8.2988281 L 10.722656 8.2988281 C 10.288041 8.2988281 10.139464 8.2841921 10.121094 8.2363281 C 10.107714 8.2013917 10.103728 7.9692087 10.111328 7.7207031 L 10.125 7.2695312 L 10.710938 7.2558594 L 11.298828 7.2421875 z M 13.851562 7.5332031 C 13.902833 7.5332031 14.090133 7.6774936 14.267578 7.8554688 C 14.564508 8.1532858 14.663549 8.3218641 14.777344 8.71875 C 14.789451 8.760974 14.922757 8.7792969 15.226562 8.7792969 C 15.45099 8.7792969 15.6722 8.807728 15.853516 8.8554688 C 15.944083 8.8792199 16.024179 8.9074618 16.089844 8.9394531 C 16.156274 8.9717165 16.206675 9.0068383 16.238281 9.0449219 C 16.256106 9.0663994 16.264959 9.0941667 16.265625 9.1269531 C 16.269057 9.2911193 16.073252 9.5782931 15.820312 9.7988281 C 15.719067 9.8868816 15.608119 9.9647692 15.498047 10.019531 C 15.373237 10.081625 15.111185 10.155357 14.916016 10.185547 L 14.560547 10.242188 L 14.251953 10.867188 C 13.380993 12.63045 12.094602 13.606398 10.212891 13.929688 C 9.5914689 14.036451 8.9252397 14.056776 8.3085938 14 C 8.3079249 13.999938 8.3073094 14.000062 8.3066406 14 C 7.6904388 13.942539 7.1224606 13.806919 6.6972656 13.603516 C 6.3652424 13.444683 6.0720961 13.191458 5.828125 12.861328 C 5.7467897 12.751533 5.6715665 12.633745 5.6015625 12.507812 C 5.5316382 12.381838 5.4679544 12.248114 5.4101562 12.107422 C 5.2367619 11.685346 5.1183999 11.200791 5.0683594 10.671875 C 5.0299735 10.266147 5.0329317 10.073586 5.09375 9.9511719 C 5.1139227 9.9102947 5.140217 9.8780837 5.1738281 9.8476562 C 5.2187313 9.8070061 5.3006073 9.7861059 5.84375 9.7714844 C 6.3868927 9.7568628 7.3914663 9.7496602 9.2792969 9.7382812 C 12.403339 9.7194504 13.321656 9.7005957 13.4375 9.6523438 L 13.585938 9.5898438 L 13.490234 9.3964844 C 13.426296 9.2672488 13.388356 9.0882171 13.375 8.8984375 C 13.374142 8.8862465 13.371734 8.8755547 13.371094 8.8632812 C 13.360554 8.6612653 13.378727 8.4480426 13.429688 8.2714844 C 13.546761 7.8658783 13.737343 7.5332031 13.851562 7.5332031 z M 8.7578125 8.4921875 L 9.328125 8.4921875 C 9.8037983 8.4921875 9.9034574 8.5031413 9.9277344 8.5664062 C 9.9655444 8.6649372 9.9655444 9.4190471 9.9277344 9.5175781 C 9.9035914 9.5804945 9.8059055 9.59375 9.359375 9.59375 C 9.0633734 9.59375 8.8066395 9.580078 8.7890625 9.5625 C 8.7714845 9.5449225 8.7578125 9.2973583 8.7578125 9.0117188 L 8.7578125 8.4921875 z M 6.0019531 8.515625 L 6.5761719 8.515625 L 7.1523438 8.515625 L 7.1523438 9.0429688 L 7.1523438 9.5703125 L 6.5878906 9.5839844 C 6.1482931 9.5945134 6.0174409 9.5837431 5.9980469 9.5332031 C 5.9843599 9.4975271 5.9806812 9.2539776 5.9882812 8.9921875 L 6.0019531 8.515625 z M 7.3925781 8.515625 L 7.9667969 8.515625 L 8.5429688 8.515625 L 8.5429688 9.0429688 L 8.5429688 9.5703125 L 7.9785156 9.5839844 C 7.7587169 9.5892489 7.6152911 9.5879147 7.5253906 9.5800781 C 7.4354902 9.5722415 7.3983689 9.5584731 7.3886719 9.5332031 C 7.3749849 9.4975271 7.3713062 9.2539776 7.3789062 8.9921875 L 7.3925781 8.515625 z M 10.125 8.515625 L 10.699219 8.515625 L 11.275391 8.515625 L 11.275391 9.0429688 L 11.275391 9.5703125 L 10.710938 9.5839844 C 10.491138 9.5892489 10.347713 9.5879147 10.257812 9.5800781 C 10.167912 9.5722415 10.130789 9.5584731 10.121094 9.5332031 C 10.107424 9.4975271 10.103728 9.2539776 10.111328 8.9921875 L 10.125 8.515625 z M 11.513672 8.515625 L 12.089844 8.515625 L 12.666016 8.515625 L 12.666016 9.0429688 L 12.666016 9.5703125 L 12.101562 9.5839844 C 11.881763 9.5892489 11.738338 9.5879147 11.648438 9.5800781 C 11.558536 9.5722415 11.521414 9.5584731 11.511719 9.5332031 C 11.498049 9.4975271 11.4924 9.2539776 11.5 8.9921875 L 11.513672 8.515625 z "
     style="fill:#000000;fill-opacity:0;stroke-width:0.04793944;opacity:1" />
</svg>
